<svg height="32" viewBox="0 0 32 32" width="32" xmlns="http://www.w3.org/2000/svg"><circle cx="24" cy="6.9998" r="1"/><path d="m26 2a16.0183 16.0183 0 0 0 -16 16v2h-7a1 1 0 0 0 -.707 1.707l8 8a1 1 0 0 0 1.707-.707v-7h2a16.0183 16.0183 0 0 0 16-16v-4zm-16 24.5857-4.5859-4.5857h4.5859zm2-6.5857v-2a13.9394 13.9394 0 0 1 3.908-9.6777l7.77 7.7695a13.94 13.94 0 0 1 -9.678 3.9082zm16-14a13.9163 13.9163 0 0 1 -2.98 8.6055l-7.6255-7.6255a13.9163 13.9163 0 0 1 8.6055-2.98h2z"/><path d="m0 0h32v32h-32z" fill="none"/></svg>